<svg width="1383" height="565" viewBox="0 0 1383 565" fill="none" xmlns="http://www.w3.org/2000/svg">
<path d="M1381.91 563.872H1V1.01562H1381.91" fill="#232535"/>
<mask id="mask0_908_8144" style="mask-type:luminance" maskUnits="userSpaceOnUse" x="1" y="1" width="1381" height="563">
<path d="M1381.92 1H1.00781V563.856H1381.92V1Z" fill="white"/>
</mask>
<g mask="url(#mask0_908_8144)">
<path d="M1.00781 308.414H207.282L301.141 432.605H524.676" stroke="#383B54" stroke-width="0.704578" stroke-miterlimit="10"/>
<path d="M539.78 447.722C548.121 447.722 554.883 440.953 554.883 432.603C554.883 424.253 548.121 417.484 539.78 417.484C531.438 417.484 524.676 424.253 524.676 432.603C524.676 440.953 531.438 447.722 539.78 447.722Z" stroke="#383B54" stroke-width="0.704578" stroke-miterlimit="10"/>
<path d="M213.682 417.488C222.023 417.488 228.786 410.719 228.786 402.369C228.786 394.019 222.023 387.25 213.682 387.25C205.34 387.25 198.578 394.019 198.578 402.369C198.578 410.719 205.34 417.488 213.682 417.488Z" stroke="#383B54" stroke-width="0.704578" stroke-miterlimit="10"/>
<path d="M170.315 462.832C178.656 462.832 185.418 456.063 185.418 447.713C185.418 439.363 178.656 432.594 170.315 432.594C161.973 432.594 155.211 439.363 155.211 447.713C155.211 456.063 161.973 462.832 170.315 462.832Z" stroke="#383B54" stroke-width="0.704578" stroke-miterlimit="10"/>
<path d="M369.541 493.066C377.883 493.066 384.645 486.297 384.645 477.947C384.645 469.597 377.883 462.828 369.541 462.828C361.2 462.828 354.438 469.597 354.438 477.947C354.438 486.297 361.2 493.066 369.541 493.066Z" stroke="#383B54" stroke-width="0.704578" stroke-miterlimit="10"/>
<path d="M504.756 493.066C513.098 493.066 519.86 486.297 519.86 477.947C519.86 469.597 513.098 462.828 504.756 462.828C496.415 462.828 489.652 469.597 489.652 477.947C489.652 486.297 496.415 493.066 504.756 493.066Z" stroke="#383B54" stroke-width="0.704578" stroke-miterlimit="10"/>
<path d="M107.096 450.097C115.437 450.097 122.2 443.328 122.2 434.978C122.2 426.628 115.437 419.859 107.096 419.859C98.7544 419.859 91.9922 426.628 91.9922 434.978C91.9922 443.328 98.7544 450.097 107.096 450.097Z" stroke="#383B54" stroke-width="0.704578" stroke-miterlimit="10"/>
<path d="M1.00781 350.594H170.313L204.98 389.975" stroke="#383B54" stroke-width="0.704578" stroke-miterlimit="10"/>
<path d="M162.186 434.988L130.972 394.383H1.00781" stroke="#383B54" stroke-width="0.704578" stroke-miterlimit="10"/>
<path d="M91.9898 434.969H1.00781" stroke="#383B54" stroke-width="0.704578" stroke-miterlimit="10"/>
<path d="M354.435 477.977H262.806L204.98 516.998H1.00781" stroke="#383B54" stroke-width="0.704578" stroke-miterlimit="10"/>
<path d="M1.00781 559.979H232.742L299.558 516.998H396.582L460.233 477.977H489.649" stroke="#383B54" stroke-width="0.704578" stroke-miterlimit="10"/>
</g>
<mask id="mask1_908_8144" style="mask-type:luminance" maskUnits="userSpaceOnUse" x="1" y="1" width="1381" height="563">
<path d="M1381.92 1H1.00781V563.856H1381.92V1Z" fill="white"/>
</mask>
<g mask="url(#mask1_908_8144)">
<path d="M1381.91 24.3359H979.507L880.757 155.007H645.57" stroke="#383B54" stroke-width="0.704578" stroke-miterlimit="10"/>
<path d="M629.68 170.908C638.459 170.908 645.575 163.784 645.575 154.997C645.575 146.209 638.459 139.086 629.68 139.086C620.902 139.086 613.785 146.209 613.785 154.997C613.785 163.784 620.902 170.908 629.68 170.908Z" stroke="#383B54" stroke-width="0.704578" stroke-miterlimit="10"/>
<path d="M972.825 139.087C981.603 139.087 988.719 131.964 988.719 123.177C988.719 114.389 981.603 107.266 972.825 107.266C964.046 107.266 956.93 114.389 956.93 123.177C956.93 131.964 964.046 139.087 972.825 139.087Z" stroke="#383B54" stroke-width="0.704578" stroke-miterlimit="10"/>
<path d="M1018.42 186.837C1027.2 186.837 1034.32 179.714 1034.32 170.927C1034.32 162.139 1027.2 155.016 1018.42 155.016C1009.64 155.016 1002.53 162.139 1002.53 170.927C1002.53 179.714 1009.64 186.837 1018.42 186.837Z" stroke="#383B54" stroke-width="0.704578" stroke-miterlimit="10"/>
<path d="M808.766 218.72C817.544 218.72 824.661 211.597 824.661 202.809C824.661 194.022 817.544 186.898 808.766 186.898C799.987 186.898 792.871 194.022 792.871 202.809C792.871 211.597 799.987 218.72 808.766 218.72Z" stroke="#383B54" stroke-width="0.704578" stroke-miterlimit="10"/>
<path d="M1084.95 173.439C1093.73 173.439 1100.85 166.315 1100.85 157.528C1100.85 148.741 1093.73 141.617 1084.95 141.617C1076.17 141.617 1069.06 148.741 1069.06 157.528C1069.06 166.315 1076.17 173.439 1084.95 173.439Z" stroke="#383B54" stroke-width="0.704578" stroke-miterlimit="10"/>
<path d="M1381.92 68.7578H1018.42L981.957 110.155" stroke="#383B54" stroke-width="0.704578" stroke-miterlimit="10"/>
<path d="M1026.98 157.521L1059.85 114.828H1381.91" stroke="#383B54" stroke-width="0.704578" stroke-miterlimit="10"/>
<path d="M1100.84 157.531H1381.91" stroke="#383B54" stroke-width="0.704578" stroke-miterlimit="10"/>
<path d="M824.656 202.797H921.104L981.951 243.834H1381.91" stroke="#383B54" stroke-width="0.704578" stroke-miterlimit="10"/>
</g>
<mask id="mask2_908_8144" style="mask-type:luminance" maskUnits="userSpaceOnUse" x="1" y="1" width="1381" height="563">
<path d="M1381.92 1H1.00781V563.856H1381.92V1Z" fill="white"/>
</mask>
<g mask="url(#mask2_908_8144)">
<path d="M670.389 84.4528C677.579 84.4528 683.407 78.6186 683.407 71.4217C683.407 64.2248 677.579 58.3906 670.389 58.3906C663.199 58.3906 657.371 64.2248 657.371 71.4217C657.371 78.6186 663.199 84.4528 670.389 84.4528Z" stroke="#383B54" stroke-width="0.719839" stroke-miterlimit="10"/>
<path d="M748.502 123.625C755.692 123.625 761.52 117.79 761.52 110.594C761.52 103.397 755.692 97.5625 748.502 97.5625C741.313 97.5625 735.484 103.397 735.484 110.594C735.484 117.79 741.313 123.625 748.502 123.625Z" stroke="#383B54" stroke-width="0.719839" stroke-miterlimit="10"/>
<path d="M1.00781 6.125H343.934C347.459 6.125 350.336 9.36477 350.336 13.3965V63.6489C350.336 67.6806 353.212 70.9204 356.737 70.9204L657.373 71.4244" stroke="#383B54" stroke-width="0.719839" stroke-miterlimit="10"/>
<path d="M1.00781 41.8281H322.789C326.313 41.8281 329.19 45.0679 329.19 49.0996V103.312C329.19 107.343 332.067 110.583 335.591 110.583H735.481" stroke="#383B54" stroke-width="0.719839" stroke-miterlimit="10"/>
</g>
<mask id="mask3_908_8144" style="mask-type:luminance" maskUnits="userSpaceOnUse" x="1" y="1" width="1381" height="563">
<path d="M1381.92 1H1.00781V563.856H1381.92V1Z" fill="white"/>
</mask>
<g mask="url(#mask3_908_8144)">
<path d="M711.592 510.797C718.782 510.797 724.61 504.962 724.61 497.765C724.61 490.569 718.782 484.734 711.592 484.734C704.403 484.734 698.574 490.569 698.574 497.765C698.574 504.962 704.403 510.797 711.592 510.797Z" stroke="#31344A" stroke-width="0.719839" stroke-miterlimit="10"/>
<path d="M633.487 549.968C640.676 549.968 646.505 544.134 646.505 536.937C646.505 529.74 640.676 523.906 633.487 523.906C626.297 523.906 620.469 529.74 620.469 536.937C620.469 544.134 626.297 549.968 633.487 549.968Z" stroke="#31344A" stroke-width="0.719839" stroke-miterlimit="10"/>
<path d="M1380.98 432.469H1038.05C1034.53 432.469 1031.65 435.709 1031.65 439.74V489.993C1031.65 494.024 1028.77 497.264 1025.25 497.264L724.613 497.768" stroke="#31344A" stroke-width="0.719839" stroke-miterlimit="10"/>
<path d="M1380.97 468.109H1059.19C1055.67 468.109 1052.79 471.349 1052.79 475.381V529.593C1052.79 533.625 1049.91 536.864 1046.39 536.864H646.5" stroke="#31344A" stroke-width="0.719839" stroke-miterlimit="10"/>
</g>
<mask id="mask4_908_8144" style="mask-type:luminance" maskUnits="userSpaceOnUse" x="1" y="1" width="1381" height="563">
<path d="M1381.92 1H1.00781V563.856H1381.92V1Z" fill="white"/>
</mask>
<g mask="url(#mask4_908_8144)">
<path d="M677.139 446.64C684.329 446.64 690.157 440.806 690.157 433.609C690.157 426.412 684.329 420.578 677.139 420.578C669.949 420.578 664.121 426.412 664.121 433.609C664.121 440.806 669.949 446.64 677.139 446.64Z" stroke="#31344A" stroke-width="0.719839" stroke-miterlimit="10"/>
<path d="M599.034 485.812C606.223 485.812 612.052 479.978 612.052 472.781C612.052 465.584 606.223 459.75 599.034 459.75C591.844 459.75 586.016 465.584 586.016 472.781C586.016 479.978 591.844 485.812 599.034 485.812Z" stroke="#31344A" stroke-width="0.719839" stroke-miterlimit="10"/>
<path d="M1380.98 368.312H1003.6C1000.07 368.312 997.197 371.552 997.197 375.584V425.836C997.197 429.868 994.32 433.108 990.796 433.108L690.16 433.612" stroke="#31344A" stroke-width="0.719839" stroke-miterlimit="10"/>
<path d="M1380.97 401.211L1024.74 403.947C1021.21 403.947 1018.34 407.187 1018.34 411.218V465.43C1018.34 469.462 1015.46 472.702 1011.94 472.702H612.047" stroke="#31344A" stroke-width="0.719839" stroke-miterlimit="10"/>
</g>
<mask id="mask5_908_8144" style="mask-type:luminance" maskUnits="userSpaceOnUse" x="1" y="1" width="1381" height="563">
<path d="M1381.92 1H1.00781V563.856H1381.92V1Z" fill="white"/>
</mask>
<g mask="url(#mask5_908_8144)">
<path d="M1.00781 180.984H466.059C468.576 180.984 470.662 183.072 470.662 185.592V344.485C470.662 347.005 472.748 349.092 475.265 349.092H746.413" stroke="#383B54" stroke-width="0.704578" stroke-miterlimit="10"/>
<path d="M1.00781 202.797H447.215C449.661 202.797 451.603 204.885 451.603 207.405V366.297C451.603 368.817 453.544 370.905 455.99 370.905H682.905" stroke="#383B54" stroke-width="0.704578" stroke-miterlimit="10"/>
<path d="M698.797 386.814C707.576 386.814 714.692 379.69 714.692 370.903C714.692 362.116 707.576 354.992 698.797 354.992C690.019 354.992 682.902 362.116 682.902 370.903C682.902 379.69 690.019 386.814 698.797 386.814Z" stroke="#383B54" stroke-width="0.704578" stroke-miterlimit="10"/>
</g>
<mask id="mask6_908_8144" style="mask-type:luminance" maskUnits="userSpaceOnUse" x="1" y="1" width="1381" height="563">
<path d="M1381.92 1H1.00781V563.856H1381.92V1Z" fill="white"/>
</mask>
<g mask="url(#mask6_908_8144)">
<path d="M1380.98 310.211H1317.12C1316.18 310.211 1315.39 310.931 1315.39 311.867V505.965C1315.39 506.685 1314.74 507.333 1314.02 507.333H1223.62C1222.83 507.333 1222.25 507.909 1222.25 508.701V563.921" stroke="#383B54" stroke-width="0.712928" stroke-miterlimit="10"/>
</g>
<mask id="mask7_908_8144" style="mask-type:luminance" maskUnits="userSpaceOnUse" x="1" y="1" width="1381" height="563">
<path d="M1381.92 1H1.00781V563.856H1381.92V1Z" fill="white"/>
</mask>
<g mask="url(#mask7_908_8144)">
<path d="M1381.41 314.758H1321.86C1320.93 314.758 1320.21 315.55 1320.21 316.486V511.232C1320.21 512.024 1319.63 512.6 1318.91 512.6H1230.16C1229.44 512.6 1228.87 513.248 1228.87 513.968V563.932" stroke="#383B54" stroke-width="0.704578" stroke-miterlimit="10"/>
</g>
<mask id="mask8_908_8144" style="mask-type:luminance" maskUnits="userSpaceOnUse" x="1" y="1" width="1381" height="563">
<path d="M1381.92 1H1.00781V563.856H1381.92V1Z" fill="white"/>
</mask>
<g mask="url(#mask8_908_8144)">
<path d="M1386.88 319.578H1327.33C1326.39 319.578 1325.67 320.37 1325.67 321.306V516.052C1325.67 516.844 1325.1 517.42 1324.38 517.42H1235.63C1234.91 517.42 1234.33 518.068 1234.33 518.788V568.752" stroke="#383B54" stroke-width="0.704578" stroke-miterlimit="10"/>
</g>
<mask id="mask9_908_8144" style="mask-type:luminance" maskUnits="userSpaceOnUse" x="1" y="1" width="1381" height="563">
<path d="M1381.92 1H1.00781V563.856H1381.92V1Z" fill="white"/>
</mask>
<g mask="url(#mask9_908_8144)">
<path d="M294.812 558.743H432.616C434.63 558.743 436.284 557.159 436.284 555.143V136.421C436.284 134.765 437.651 133.469 439.305 133.469H634.287C635.941 133.469 637.236 132.173 637.236 130.589V11.4375" stroke="#31344A" stroke-width="0.704578" stroke-miterlimit="10"/>
<path d="M293.801 548.951H422.254C424.196 548.951 425.779 547.295 425.779 545.28V125.189C425.779 123.534 427.073 122.166 428.656 122.166H620.185C621.768 122.166 622.99 120.87 622.99 119.214V11.4375" stroke="#31344A" stroke-width="0.704578" stroke-miterlimit="10"/>
<path d="M282.008 538.444H410.461C412.403 538.444 413.986 536.788 413.986 534.772V114.682C413.986 113.026 415.28 111.658 416.863 111.658H608.392C609.975 111.658 611.197 110.362 611.197 108.706V0.929688" stroke="#31344A" stroke-width="0.704578" stroke-miterlimit="10"/>
</g>
<mask id="mask10_908_8144" style="mask-type:luminance" maskUnits="userSpaceOnUse" x="1" y="1" width="1381" height="563">
<path d="M1381.92 1H1.00781V563.856H1381.92V1Z" fill="white"/>
</mask>
<g mask="url(#mask10_908_8144)">
<path d="M133.133 1.03125V148.765C133.133 149.557 132.486 150.205 131.695 150.205H49.6314C48.8402 150.205 48.1929 150.853 48.1929 151.645V368.493C48.1929 369.285 47.5456 369.933 46.7544 369.933H1.01172" stroke="#212230" stroke-width="0.704578" stroke-miterlimit="10"/>
<path d="M125.723 -7.69531V140.038C125.723 140.83 125.076 141.478 124.285 141.478H42.2212C41.43 141.478 40.7827 142.126 40.7827 142.918V359.767C40.7827 360.559 40.1354 361.207 39.3443 361.207H-6.39844" stroke="#212230" stroke-width="0.704578" stroke-miterlimit="10"/>
<path d="M118.317 -16.4062V131.327C118.317 132.119 117.67 132.767 116.879 132.767H34.8149C34.0238 132.767 33.3765 133.415 33.3765 134.207V351.056C33.3765 351.848 32.7292 352.496 31.938 352.496H-13.8047" stroke="#212230" stroke-width="0.704578" stroke-miterlimit="10"/>
</g>
<path d="M1381.91 1.01562H1V563.872H1381.91V1.01562Z" stroke="#31344A" stroke-width="0.704578" stroke-miterlimit="10"/>
</svg>
