<svg width="253" height="40" viewBox="0 0 253 40" fill="none" xmlns="http://www.w3.org/2000/svg">
<path d="M10.729 39H0.618535V1.56465H18.4876V10.3658H10.729V15.8211H17.9542V24.2829H10.729V39ZM49.91 20.4036C49.91 26.1094 48.6088 30.7484 46.0065 34.3206C43.4203 37.8766 40.0501 39.6546 35.896 39.6546C32.2107 39.6546 29.0506 38.2888 26.4159 35.5571C23.1024 32.0981 21.4456 26.9095 21.4456 19.9914C21.4456 13.3642 23.1751 8.29687 26.6342 4.78933C29.2042 2.18696 32.2511 0.885774 35.7748 0.885774C40.0905 0.885774 43.5253 2.64763 46.0792 6.17133C48.6331 9.69504 49.91 14.4391 49.91 20.4036ZM39.4116 20.4763C39.4116 13.7037 38.2155 10.3173 35.8233 10.3173C34.6272 10.3173 33.6735 11.2064 32.9623 12.9844C32.2672 14.6331 31.9197 17.0577 31.9197 20.2581C31.9197 23.41 32.243 25.8588 32.8895 27.6045C33.5523 29.3341 34.4655 30.1988 35.6293 30.1988C36.8254 30.1988 37.7468 29.3421 38.3933 27.6288C39.0722 25.9154 39.4116 23.5312 39.4116 20.4763ZM80.8718 39H69.937L64.9424 25.6649C64.8939 25.4386 64.805 25.1395 64.6757 24.7678C64.5625 24.396 64.417 23.9515 64.2392 23.4343L64.312 25.9073V39H54.25V1.56465H64.6029C69.1611 1.56465 72.5717 2.46174 74.8346 4.25593C77.7118 6.55118 79.1503 9.81627 79.1503 14.0512C79.1503 18.577 77.2188 21.7047 73.3556 23.4343L80.8718 39ZM64.3605 18.9003H65.0393C66.2031 18.9003 67.173 18.4558 67.9488 17.5668C68.7247 16.6778 69.1126 15.5463 69.1126 14.1724C69.1126 11.3761 67.6498 9.97791 64.7241 9.97791H64.3605V18.9003Z" fill="#91929A"/>
<path d="M109.263 39H99.153V1.56465H117.022V10.3658H109.263V15.8211H116.489V24.2829H109.263V39ZM136.249 1.56465H146.359V28.0409C146.359 30.2554 146.012 32.0496 145.317 33.4235C144.638 34.8621 143.506 36.1633 141.922 37.327C139.789 38.8788 137.195 39.6546 134.14 39.6546C130.68 39.6546 127.779 38.798 125.435 37.0846C122.461 34.9025 120.974 31.4111 120.974 26.6105V1.56465H131.085V25.7134C131.085 27.3459 131.279 28.5016 131.666 29.1805C132.071 29.8594 132.741 30.1988 133.679 30.1988C134.649 30.1988 135.32 29.8836 135.691 29.2532C136.063 28.5905 136.249 27.4186 136.249 25.7376V1.56465ZM164.689 39H154.579V10.5356H149.002V1.56465H170.484V10.5356H164.689V39ZM188.377 1.56465H198.488V28.0409C198.488 30.2554 198.14 32.0496 197.445 33.4235C196.766 34.8621 195.635 36.1633 194.051 37.327C191.917 38.8788 189.323 39.6546 186.268 39.6546C182.809 39.6546 179.907 38.798 177.564 37.0846C174.589 34.9025 173.102 31.4111 173.102 26.6105V1.56465H183.213V25.7134C183.213 27.3459 183.407 28.5016 183.795 29.1805C184.199 29.8594 184.87 30.1988 185.807 30.1988C186.777 30.1988 187.448 29.8836 187.82 29.2532C188.191 28.5905 188.377 27.4186 188.377 25.7376V1.56465ZM230.371 39H219.436L214.441 25.6649C214.393 25.4386 214.304 25.1395 214.175 24.7678C214.061 24.396 213.916 23.9515 213.738 23.4343L213.811 25.9073V39H203.749V1.56465H214.102C218.66 1.56465 222.071 2.46174 224.334 4.25593C227.211 6.55118 228.649 9.81627 228.649 14.0512C228.649 18.577 226.718 21.7047 222.855 23.4343L230.371 39ZM213.859 18.9003H214.538C215.702 18.9003 216.672 18.4558 217.448 17.5668C218.224 16.6778 218.612 15.5463 218.612 14.1724C218.612 11.3761 217.149 9.97791 214.223 9.97791H213.859V18.9003ZM233.717 39V1.56465H252.507V10.3658H243.827V15.8211H251.61V24.2829H243.827V30.0048H252.507V39H233.717Z" fill="white"/>
</svg>
